<svg width="500" height="163" viewBox="0 0 500 163" fill="none" xmlns="http://www.w3.org/2000/svg">
<path fill-rule="evenodd" clip-rule="evenodd" d="M61.4783 6.74563C74.3901 -1.57129 91.0437 -1.27751 103.654 7.48965L143.61 35.2688C153.804 42.3559 159.883 53.9847 159.883 66.4001V137.908C159.883 151.594 148.787 162.689 135.101 162.689H115.69C111.172 162.689 106.74 161.454 102.873 159.118L59.5392 132.932V137.91C59.5392 151.595 48.4462 162.69 34.7609 162.691L24.7853 162.693C11.0973 162.695 0 151.599 0 137.911V67.024C0 54.1349 6.54787 42.1284 17.3837 35.1487L61.4783 6.74563ZM86.4383 124.902L113.622 141.329C114.246 141.705 114.961 141.905 115.69 141.905H135.101C137.308 141.905 139.098 140.115 139.098 137.908V66.4001C139.098 60.7906 136.352 55.5365 131.746 52.3344L91.7894 24.5553C86.0919 20.5941 78.5674 20.4614 72.7337 24.2191L28.639 52.6222C23.7432 55.7757 20.7847 61.2005 20.7847 67.024V137.911C20.7847 140.119 22.5746 141.908 24.7824 141.908L34.758 141.907C36.9653 141.906 38.7545 140.117 38.7545 137.91V83.2063C38.7545 71.0958 48.572 61.2784 60.6824 61.2784H90.2605C107.829 61.2784 122.072 75.5209 122.072 93.09C122.072 110.659 107.83 124.902 90.2605 124.902H86.4383ZM59.5392 104.117H90.2605C96.3504 104.117 101.287 99.1799 101.287 93.09C101.287 87 96.3504 82.0631 90.2605 82.0631H60.6824C60.0511 82.0631 59.5392 82.5749 59.5392 83.2063V104.117Z" fill="#292929"/>
<path d="M233.723 93.1163L256.567 126.896H240.407L218.17 93.8454H204.439V126.896H190.952V41.8388H226.19C234.534 41.8388 241.298 44.3095 246.482 49.251C251.748 54.1114 254.38 60.3084 254.38 67.8421C254.38 74.0797 252.517 79.5071 248.791 84.1245C245.064 88.742 240.042 91.7392 233.723 93.1163ZM226.19 53.8684H204.439V81.5728H226.19C230.402 81.5728 233.845 80.2767 236.518 77.6845C239.191 75.0112 240.528 71.6899 240.528 67.7206C240.528 63.7512 239.191 60.4705 236.518 57.8782C233.845 55.205 230.402 53.8684 226.19 53.8684Z" fill="white"/>
<path d="M264.271 101.136V64.8043H277.03V101.136C277.03 105.672 278.488 109.358 281.404 112.194C284.32 114.948 288.047 116.325 292.583 116.325C297.038 116.325 300.724 114.948 303.641 112.194C306.557 109.358 308.015 105.672 308.015 101.136V64.8043H320.774V101.136C320.774 109.075 318.1 115.555 312.754 120.578C307.488 125.6 300.765 128.111 292.583 128.111C284.32 128.111 277.516 125.6 272.169 120.578C266.904 115.555 264.271 109.075 264.271 101.136Z" fill="white"/>
<path d="M408.288 63.5892C414.687 63.5892 419.912 66.06 423.963 71.0014C428.094 75.9428 430.16 82.2209 430.16 89.8356V126.896H417.401V91.7797C417.401 87.0003 416.065 83.0715 413.391 79.9932C410.799 76.8339 407.559 75.2543 403.67 75.2543C399.296 75.2543 395.691 76.8339 392.856 79.9932C390.102 83.0715 388.725 87.0003 388.725 91.7797V126.896H375.966V91.7797C375.966 87.0003 374.67 83.0715 372.078 79.9932C369.485 76.8339 366.245 75.2543 362.357 75.2543C357.982 75.2543 354.378 76.8339 351.542 79.9932C348.788 83.0715 347.411 87.0003 347.411 91.7797V126.896H334.652V64.8043H347.411V79.9932C349.112 74.8897 351.664 70.8799 355.066 67.9636C358.549 65.0474 362.6 63.5892 367.217 63.5892C372.159 63.5892 376.412 65.1689 379.976 68.3282C383.621 71.4064 386.173 75.5783 387.631 80.8438C389.089 75.5783 391.641 71.4064 395.286 68.3282C399.013 65.1689 403.346 63.5892 408.288 63.5892Z" fill="white"/>
<path d="M467.314 123.373L486.998 64.8043H500L470.837 151.198H457.836L466.099 126.896H456.013L434.87 64.8043H448.723L467.314 123.373Z" fill="white"/>
</svg>
